<svg viewBox="0 0 32 32" enable-background="new 0 0 32 32" version="1.1" xml:space="preserve" xmlns="http://www.w3.org/2000/svg" xmlns:xlink="http://www.w3.org/1999/xlink" fill="#000000"><g id="SVGRepo_bgCarrier" stroke-width="0"></g><g id="SVGRepo_tracerCarrier" stroke-linecap="round" stroke-linejoin="round"></g><g id="SVGRepo_iconCarrier"> <g id="Layer_2"></g> <g id="Layer_3"></g> <g id="Layer_4"></g> <g id="Layer_5"></g> <g id="Layer_6"></g> <g id="Layer_7"></g> <g id="Layer_8"></g> <g id="Layer_9"></g> <g id="Layer_10"></g> <g id="Layer_11"></g> <g id="Layer_12"></g> <g id="Layer_13"></g> <g id="Layer_14"></g> <g id="Layer_15"></g> <g id="Layer_16"></g> <g id="Layer_17"> <g> <path d="M26.8,11.5l-12,19C14.7,30.8,14.3,31,14,31c-0.1,0-0.2,0-0.3-0.1c-0.4-0.2-0.7-0.6-0.6-1.1L14.8,17H6 c-0.4,0-0.7-0.2-0.9-0.5c-0.2-0.3-0.1-0.7,0.1-1l10-14c0.3-0.4,0.7-0.5,1.1-0.4C16.7,1.2,17,1.6,17,2v8h9c0.4,0,0.7,0.2,0.9,0.5 C27,10.8,27,11.2,26.8,11.5z" fill="#FFC10A"></path> </g> </g> <g id="Layer_18"></g> <g id="Layer_19"></g> <g id="Layer_20"></g> <g id="Layer_21"></g> <g id="Layer_22"></g> <g id="Layer_23"></g> <g id="Layer_24"></g> <g id="Layer_25"></g> <g id="Wearher"></g> </g></svg>